<?xml version="1.0" encoding="UTF-8"?>
<svg id="Layer_1" data-name="Layer 1" xmlns="http://www.w3.org/2000/svg" viewBox="0 0 512 512">
  <defs>
    <style>
      .cls-1 {
        fill: #d1d1d1;
      }
    </style>
  </defs>
  <rect width="512" height="512"/>
  <rect class="cls-1" x="345.02579" y="96.2162" width="66.36473" height="96.76832" rx="7.10833" ry="7.10833" transform="translate(8.52671 309.78602) rotate(-45)"/>
  <path class="cls-1" d="M366.16559,211.24786l-54.60498-54.60498c-3.81641-3.81641-10.00409-3.81641-13.82056,0l-180.79926,180.79932c-1.04962,1.06708-2.34412,2.59192-3.51526,4.62164-1.1828,2.0498-1.85754,3.95209-2.25531,5.40424v68.17023c21.70587-.6178,43.41174-1.23553,65.11761-1.85333,1.43646-.70569,3.31079-1.80908,5.22278-3.50836,1.75854-1.56293,3.00458-3.146,3.85571-4.40887l180.79926-180.79932c3.81647-3.81641,3.81647-10.00409,0-13.82056Z"/>
</svg>