<?xml version="1.0" encoding="UTF-8"?>
<svg id="Layer_1" data-name="Layer 1" xmlns="http://www.w3.org/2000/svg" viewBox="0 0 512 512">
  <defs>
    <style>
      .cls-1 {
        fill: #fff;
      }
    </style>
  </defs>
  <rect width="512" height="512"/>
  <path class="cls-1" d="M427.2435,45.67465c-7.71823-4.82935-16.83853-3.48526-18.65207-3.13284-9.36691,1.82022-14.6954,8.02551-16.10208,9.77734-9.57153,9.14746-19.07941,18.70108-28.48935,28.68085-93.2493,98.89612-148.94218,210.00873-182.78337,311.28371-20.20439-47.44792-40.40878-94.89584-60.61318-142.34377-5.34695-12.55676-19.86083-18.40146-32.41759-13.0545-12.55683,5.34695-18.40153,19.86082-13.05457,32.41759l79.09753,185.75213c5.34695,12.55676,19.86082,18.40147,32.41759,13.05451,4.64845-1.97941,8.3739-5.21704,10.95538-9.14462.57715-.72593,1.12305-1.48745,1.62665-2.29226,19.90784-70.79111,58.2627-170.92727,135.77158-270.67279,33.55331-43.17947,68.17389-78.21671,100.08441-106.26895,5.27036-13.59607,1.70877-28.08109-7.84091-34.0564Z"/>
</svg>