<?xml version="1.0" encoding="UTF-8"?>
<svg id="Layer_1" data-name="Layer 1" xmlns="http://www.w3.org/2000/svg" viewBox="0 0 512 512">
  <defs>
    <style>
      .cls-1 {
        fill: #fff;
      }
    </style>
  </defs>
  <rect width="512" height="512"/>
  <g>
    <path id="white_rectangle" data-name="white rectangle" class="cls-1" d="M465.04651,45.4535v420.09301H44.9535V45.4535h420.09301M477.77661,32.7234H32.2234v445.55318h445.55318V32.7234h.00003Z"/>
    <polygon id="bottom_arrow" data-name="bottom arrow" class="cls-1" points="101.99633 426.0008 170.67666 426.0008 170.67666 408.17869 114.03357 408.17869 205.86723 316.34504 193.2651 303.74289 101.99633 395.01169 101.99633 339.49827 84.1742 339.49827 84.1742 408.17869 84.1742 426.0008 101.99633 426.0008"/>
    <polygon id="top_arrow" data-name="top arrow" class="cls-1" points="413.28647 78.50152 344.60614 78.50152 344.60614 96.32365 401.2492 96.32365 309.41556 188.15732 322.0177 200.75943 413.28647 109.49064 413.28647 165.00406 431.10861 165.00406 431.10861 96.32365 431.10861 78.50152 413.28647 78.50152"/>
  </g>
</svg>