<?xml version="1.0" encoding="UTF-8"?>
<svg id="Layer_1" data-name="Layer 1" xmlns="http://www.w3.org/2000/svg" viewBox="0 0 512 512">
  <defs>
    <style>
      .cls-1 {
        fill: #fff;
      }
    </style>
  </defs>
  <rect width="512" height="512"/>
  <g>
    <path id="white_rectangle" data-name="white rectangle" class="cls-1" d="M466.0465,45.9535v420.09301H45.9535V45.9535h420.09301M478.7766,33.2234H33.2234v445.55319h445.55319V33.2234h0Z"/>
    <polygon id="bottom_arrow" data-name="bottom arrow" class="cls-1" points="189.04511 304.24288 120.36478 304.24288 120.36478 322.06501 177.00786 322.06501 85.1742 413.89866 97.77633 426.50078 189.04511 335.232 189.04511 390.74542 206.86724 390.74542 206.86724 322.06501 206.86724 304.24288 189.04511 304.24288"/>
    <polygon id="top_arrow" data-name="top arrow" class="cls-1" points="328.23769 201.25943 396.91802 201.25943 396.91802 183.4373 340.27495 183.4373 432.1086 91.60364 419.50648 79.00152 328.23769 170.27031 328.23769 114.75689 310.41556 114.75689 310.41556 183.4373 310.41556 201.25943 328.23769 201.25943"/>
  </g>
</svg>