<?xml version="1.0" encoding="UTF-8"?>
<svg id="Layer_1" data-name="Layer 1" xmlns="http://www.w3.org/2000/svg" viewBox="0 0 512 512">
  <defs>
    <style>
      .cls-1 {
        fill: #fff;
      }
    </style>
  </defs>
  <rect width="512" height="512"/>
  <path class="cls-1" d="M256,91.10641c44.04468,0,85.45306,17.15192,116.59741,48.29617,31.14426,31.14435,48.29617,72.55273,48.29617,116.59741s-17.15192,85.45306-48.29617,116.5974c-31.14435,31.14427-72.55273,48.2962-116.59741,48.2962s-85.45306-17.15193-116.5974-48.2962c-31.14427-31.14433-48.2962-72.55273-48.2962-116.5974s17.15193-85.45306,48.2962-116.59741c31.14433-31.14426,72.55273-48.29617,116.5974-48.29617M256,81.10641c-96.59106,0-174.8936,78.30252-174.8936,174.89359s78.30254,174.8936,174.8936,174.8936,174.89359-78.30254,174.89359-174.8936-78.30252-174.89359-174.89359-174.89359h0Z"/>
  <polygon class="cls-1" points="334.31915 250.82977 260.0213 250.82977 260.0213 176.53192 251.85107 176.53192 251.85107 250.82977 177.55316 250.82977 177.55316 259 251.85107 259 251.85107 333.29785 260.0213 333.29785 260.0213 259 334.31915 259 334.31915 250.82977"/>
</svg>