<?xml version="1.0" encoding="UTF-8"?>
<svg id="Layer_1" data-name="Layer 1" xmlns="http://www.w3.org/2000/svg" viewBox="0 0 512 512">
  <defs>
    <style>
      .cls-1 {
        fill: #fff;
      }
    </style>
  </defs>
  <rect width="512" height="512"/>
  <polygon class="cls-1" points="329.07532 254 255.92468 179 182.77405 254 227.92468 254 227.92468 465 283.92468 465 283.92468 254 329.07532 254"/>
  <path class="cls-1" d="M425.5,45H84.5c-21.81525,0-39.5,17.68469-39.5,39.5v264c0,21.81525,17.68475,39.5,39.5,39.5h90.5v-16h-90.5c-12.95789,0-23.5-10.54211-23.5-23.5V84.5c0-12.95795,10.54211-23.5,23.5-23.5h341c12.95795,0,23.5,10.54205,23.5,23.5v264c0,12.95789-10.54205,23.5-23.5,23.5h-87.5v16h87.5c21.81531,0,39.5-17.68475,39.5-39.5V84.5c0-21.81531-17.68469-39.5-39.5-39.5Z"/>
</svg>