<?xml version="1.0" encoding="UTF-8"?>
<svg id="Layer_1" data-name="Layer 1" xmlns="http://www.w3.org/2000/svg" viewBox="0 0 512 512">
  <defs>
    <style>
      .cls-1 {
        fill: #fff;
      }
    </style>
  </defs>
  <rect width="512" height="512"/>
  <g id="Upload_to_Data_Sync" data-name="Upload to Data Sync">
    <path id="arrow" class="cls-1" d="M265.08984,391.5874l-76.43701-64.39856c-4.76703-4.01624-12.05322-.6275-12.05322,5.6059v37.02484c-45.54346-13.487-77.93671-52.22015-81.41907-96.52057-4.21338-53.60065,36.00775-88.50104,40.16296-91.98608-3.63678-9.2132-7.2735-18.42645-10.91028-27.63959-2.84113-7.19751-5.68225-14.39496-8.52338-21.59247-10.44635,11.55438-24.22137,29.16986-35.62842,53.11877-4.32599,9.08228-26.52686,55.69269-21.1416,102.80719,9.48035,82.94122,99.91223,127.73633,117.45978,135.65643v37.92859c0,6.23334,7.28619,9.62213,12.05322,5.6059l76.43701-64.39856c3.47632-2.92883,3.47632-8.28296,0-11.21179Z"/>
    <path id="right_arch" data-name="right arch" class="cls-1" d="M351.2193,262.28656c1.4241,7.33429,5.11934,31.32611-8.25929,56.19574-9.35761,17.39494-22.6472,27.00108-29.46698,31.25335,4.31609,12.95662,8.63222,25.91323,12.94832,38.86985,11.44408-6.71475,29.66078-19.49427,44.85944-41.45851,24.22457-35.00799,25.37767-71.0872,25.10183-84.86042h-45.18332Z"/>
    <rect id="middle_chain" data-name="middle chain" class="cls-1" x="226.51986" y="98.28791" width="128.44283" height="42.7541"/>
    <polygon id="plus" class="cls-1" points="449.52136 161.93323 407.25311 161.93323 407.25311 119.66498 371.30078 119.66498 371.30078 161.93323 329.03253 161.93323 329.03253 197.8855 371.30078 197.8855 371.30078 240.15375 407.25311 240.15375 407.25311 197.8855 449.52136 197.8855 449.52136 161.93323"/>
    <path id="top_right_chain" data-name="top right chain" class="cls-1" d="M413.58043,53.59541c-10.91888-6.22656-21.88112-8.74283-32.44995-10.53158h-60.5231c-.07332,10.29264-.14665,20.58536-.21997,30.87799h52.04708c22.72811,0,41.40036,17.34227,43.51973,39.51514h37.7428c-4.18803-38.59529-37.1353-58.16145-40.1166-59.86155Z"/>
    <path id="left_chain_arch" data-name="left chain arch" class="cls-1" d="M204.76493,190.0041h76.70905v-28.61074h-47.99037c-24.14908,0-43.72577-19.5767-43.72577-43.72577v-.00008c0-24.14908,19.5767-43.72569,43.72577-43.72569h47.98209c-.01518-10.04076-.03043-20.08145-.04568-30.12222-1.3382-.25644-2.77093-.50963-4.26367-.75578h-52.93983c-12.10477,1.86997-23.67568,4.10936-35.97015,11.12043-3.37034,1.92197-38.98711,23.69918-40.32488,61.80988-1.10955,31.60876,21.79961,62.51134,56.84346,74.00997Z"/>
  </g>
</svg>